<?xml version="1.0" encoding="UTF-8"?>
<svg id="background_Mobile" data-name="background Mobile" xmlns="http://www.w3.org/2000/svg" xmlns:xlink="http://www.w3.org/1999/xlink" viewBox="0 0 1126 4370">
<defs>
<style>
      .cls-1 {
        fill: none;
      }
 
      .cls-1, .cls-2, .cls-3 {
        stroke-width: 0px;
      }
 
      .cls-2 {
        fill: url(#ROC_enq_home);
      }
 
      .cls-3 {
        fill: #efefef;
        fill-rule: evenodd;
      }
</style>
<pattern id="ROC_enq_home" data-name="ROC enq home" x="0" y="0" width="252.17" height="256.47" patternTransform="translate(947 -90)" patternUnits="userSpaceOnUse" viewBox="0 0 252.17 256.47">
<g>
<rect class="cls-1" x="0" y="0" width="252.17" height="256.47"/>
<path class="cls-3" d="m239.43,55.5h0l5.69,5.69,7.06-7.06-5.69-5.69-7.06,7.06h0Zm-61.33-7.11l-5.69,5.69,7.06,7.06,5.69-5.69-7.06-7.06h0Zm-5.5-9.16l39.79,39.79,39.39-39.39-7.06-7.06-6.8,6.8-22.67-22.67.04-16.68-6.55-.02-.04,17.81-21.71,21.71-7.34-7.34-7.06,7.06h0Zm36.06-7.29l-.07,29.18-14.56-14.56,14.62-14.62h0Zm6.47,30.21l.08-31.38,15.65,15.65-15.73,15.73h0Z"/>
<path class="cls-3" d="m135.29,101.44c-1.01,1.01-1.52,2.31-1.52,3.64,0,1.31.5,2.64,1.51,3.65l27.94,27.94c1,1,2.32,1.51,3.65,1.51,1.31,0,2.64-.5,3.65-1.51l13.22-13.22c1-1,1.51-2.32,1.51-3.65,0-1.31-.5-2.64-1.51-3.65l-27.93-27.93c-1-1-2.32-1.51-3.65-1.51-1.31,0-2.64.5-3.65,1.51l-13.22,13.22h0Zm-59.06,31.58h0c-.87.87-.87,2.29,0,3.17l36.49,36.49c.87.87,2.29.87,3.17,0l38.23-38.23-6.61-6.61-35.05,35.05c-.77.77-2.03.77-2.8,0l-27.26-27.26c-.77-.77-.77-2.03,0-2.8h0l48.72-48.72c.77-.77,2.03-.77,2.8,0l6.77,6.77,3.36-3.36-9.57-9.57c-.87-.87-2.29-.87-3.17,0l-55.08,55.08h0Zm62.19,21.48h0c2.91,2.89,3.24,6.47,2.63,10.29l22.03-22.03c-4.53,1.02-7.77-.18-10.3-2.63l-14.36,14.36h0Zm-.34-14.7c-1.13,1.13-1.12,2.95,0,4.07,1.13,1.13,2.95,1.12,4.07,0s1.12-2.95,0-4.07-2.95-1.12-4.07,0h0Zm34.56-14.22c-.84.84-.83,2.17,0,3s2.17.83,3,0,.83-2.17,0-3-2.17-.83-3,0h0Zm-9.86,7.58l-23.95-23.95,17.44-17.44,23.95,23.95-17.44,17.44h0Z"/>
<path class="cls-3" d="m.29,208.43H.29c-.39.39-.39,1.02,0,1.4l46.35,46.35c.38.38,1.01.38,1.4,0l42.14-42.14c.39-.39.39-1.02,0-1.4l-46.35-46.35c-.38-.38-1.01-.38-1.4,0L.29,208.43H.29Zm13.65-7.51l18.7,18.7,21.07-21.07-18.7-18.7-21.07,21.07h0Zm22.43,22.43l18.7,18.7,21.07-21.07-18.7-18.7-21.07,21.07h0Zm6.81,23.22l3.79,3.79,5.71-5.71-3.79-3.79-5.71,5.71h0Zm31.87-31.87l3.79,3.79,5.71-5.71-3.79-3.79-5.71,5.71h0Zm-37.47-37.47l3.79,3.79,5.71-5.71-3.79-3.79-5.71,5.71h0Zm7.49,7.49l3.79,3.79,5.71-5.71-3.79-3.79-5.71,5.71h0Zm7.49,7.49h0l3.79,3.79,5.71-5.71-3.79-3.79-5.71,5.71h0Zm7.49,7.49l3.79,3.79,5.71-5.71-3.79-3.79-5.71,5.71h0Zm7.5,7.5l3.79,3.79,5.71-5.71-3.79-3.79-5.71,5.71h0Zm-61.84,1.89l3.79,3.79,5.71-5.71-3.79-3.79-5.71,5.71h0Zm7.49,7.49l3.79,3.79,5.71-5.71-3.79-3.79-5.71,5.71h0Zm7.49,7.49l3.79,3.79,5.71-5.71-3.79-3.79-5.71,5.71h0Zm7.49,7.49l3.79,3.79,5.71-5.71-3.79-3.79-5.71,5.71h0Zm7.5,7.5l3.79,3.79,5.71-5.71-3.79-3.79-5.71,5.71h0Z"/>
</g>
</pattern>
</defs>
<rect class="cls-2" y="0" width="1126" height="4370"/>
</svg>
